<svg width="28" height="28" viewBox="0 0 28 28" fill="none" xmlns="http://www.w3.org/2000/svg">
<path fill-rule="evenodd" clip-rule="evenodd" d="M9.33325 2.33325C8.40499 2.33325 7.51476 2.702 6.85838 3.35838C6.202 4.01476 5.83325 4.90499 5.83325 5.83325V24.4999C5.83336 24.6987 5.88426 24.8942 5.98112 25.0678C6.07798 25.2414 6.2176 25.3873 6.38671 25.4918C6.55583 25.5963 6.74884 25.6558 6.94743 25.6648C7.14601 25.6737 7.34359 25.6318 7.52142 25.5429L13.9999 22.3043L20.4784 25.5429C20.6562 25.6318 20.8538 25.6737 21.0524 25.6648C21.251 25.6558 21.444 25.5963 21.6131 25.4918C21.7822 25.3873 21.9219 25.2414 22.0187 25.0678C22.1156 24.8942 22.1665 24.6987 22.1666 24.4999V5.83325C22.1666 4.90499 21.7978 4.01476 21.1415 3.35838C20.4851 2.702 19.5948 2.33325 18.6666 2.33325H9.33325Z" fill="black"/>
</svg>
