<svg width="28" height="28" viewBox="0 0 28 28" fill="none" xmlns="http://www.w3.org/2000/svg">
<path d="M11.7599 12.6699C11.8183 12.2849 11.9466 11.9466 12.1099 11.6549C12.2733 11.3633 12.5066 11.1183 12.7983 10.9316C13.0783 10.7566 13.4283 10.6749 13.8599 10.6633C14.1283 10.6749 14.3733 10.7216 14.5949 10.8149C14.8283 10.9199 15.0383 11.0599 15.2016 11.2349C15.3649 11.4099 15.4933 11.6199 15.5983 11.8533C15.7033 12.0866 15.7499 12.3433 15.7616 12.5999H17.8499C17.8266 12.0516 17.7216 11.5499 17.5233 11.0949C17.3249 10.6399 17.0566 10.2433 16.7066 9.91658C16.3566 9.58992 15.9366 9.33325 15.4466 9.14659C14.9566 8.95992 14.4199 8.87825 13.8249 8.87825C13.0666 8.87825 12.4016 9.00658 11.8416 9.27492C11.2816 9.54325 10.8149 9.89325 10.4416 10.3483C10.0683 10.8033 9.78825 11.3283 9.61325 11.9349C9.43825 12.5416 9.33325 13.1716 9.33325 13.8483V14.1633C9.33325 14.8399 9.42658 15.4699 9.60158 16.0766C9.77658 16.6833 10.0566 17.2083 10.4299 17.6516C10.8033 18.0949 11.2699 18.4566 11.8299 18.7133C12.3899 18.9699 13.0549 19.1099 13.8133 19.1099C14.3616 19.1099 14.8749 19.0166 15.3533 18.8416C15.8316 18.6666 16.2516 18.4216 16.6133 18.1066C16.9749 17.7916 17.2666 17.4299 17.4766 17.0099C17.6866 16.5899 17.8149 16.1466 17.8266 15.6683H15.7383C15.7266 15.9133 15.6683 16.1349 15.5633 16.3449C15.4583 16.5549 15.3183 16.7299 15.1433 16.8816C14.9683 17.0333 14.7699 17.1499 14.5366 17.2316C14.3149 17.3133 14.0816 17.3366 13.8366 17.3483C13.4166 17.3366 13.0666 17.2549 12.7983 17.0799C12.5066 16.8933 12.2733 16.6483 12.1099 16.3566C11.9466 16.0649 11.8183 15.7149 11.7599 15.3299C11.7016 14.9449 11.6666 14.5483 11.6666 14.1633V13.8483C11.6666 13.4399 11.7016 13.0549 11.7599 12.6699ZM13.9999 2.33325C7.55992 2.33325 2.33325 7.55992 2.33325 13.9999C2.33325 20.4399 7.55992 25.6666 13.9999 25.6666C20.4399 25.6666 25.6666 20.4399 25.6666 13.9999C25.6666 7.55992 20.4399 2.33325 13.9999 2.33325ZM13.9999 23.3333C8.85492 23.3333 4.66659 19.1449 4.66659 13.9999C4.66659 8.85492 8.85492 4.66659 13.9999 4.66659C19.1449 4.66659 23.3333 8.85492 23.3333 13.9999C23.3333 19.1449 19.1449 23.3333 13.9999 23.3333Z" fill="#0D0D0E"/>
</svg>
