<svg width="28" height="28" viewBox="0 0 28 28" fill="none" xmlns="http://www.w3.org/2000/svg">
<path fill-rule="evenodd" clip-rule="evenodd" d="M3.5 12.1334C3.5 9.52008 3.5 8.21341 4.00867 7.21475C4.45607 6.3367 5.16995 5.62282 6.048 5.17541C7.04667 4.66675 8.35333 4.66675 10.9667 4.66675H17.0333C19.6467 4.66675 20.9533 4.66675 21.952 5.17541C22.83 5.62282 23.5439 6.3367 23.9913 7.21475C24.5 8.21341 24.5 9.52008 24.5 12.1334V13.5334C24.5 16.1467 24.5 17.4534 23.9913 18.4521C23.5439 19.3301 22.83 20.044 21.952 20.4914C20.9533 21.0001 19.6467 21.0001 17.0333 21.0001H8.64967C8.34027 21.0001 8.04357 21.1231 7.82483 21.3419L5.4915 23.6752C4.7565 24.4102 3.5 23.8899 3.5 22.8504V15.1667V12.1334ZM10.5 9.33341C10.1906 9.33341 9.89383 9.45633 9.67504 9.67512C9.45625 9.89392 9.33333 10.1907 9.33333 10.5001C9.33333 10.8095 9.45625 11.1062 9.67504 11.325C9.89383 11.5438 10.1906 11.6667 10.5 11.6667H17.5C17.8094 11.6667 18.1062 11.5438 18.325 11.325C18.5437 11.1062 18.6667 10.8095 18.6667 10.5001C18.6667 10.1907 18.5437 9.89392 18.325 9.67512C18.1062 9.45633 17.8094 9.33341 17.5 9.33341H10.5ZM10.5 14.0001C10.1906 14.0001 9.89383 14.123 9.67504 14.3418C9.45625 14.5606 9.33333 14.8573 9.33333 15.1667C9.33333 15.4762 9.45625 15.7729 9.67504 15.9917C9.89383 16.2105 10.1906 16.3334 10.5 16.3334H14C14.3094 16.3334 14.6062 16.2105 14.825 15.9917C15.0437 15.7729 15.1667 15.4762 15.1667 15.1667C15.1667 14.8573 15.0437 14.5606 14.825 14.3418C14.6062 14.123 14.3094 14.0001 14 14.0001H10.5Z" fill="black"/>
</svg>
