<svg width="28" height="28" viewBox="0 0 28 28" fill="none" xmlns="http://www.w3.org/2000/svg">
<path d="M13.9999 20.4166C16.7183 20.4166 19.0166 18.7133 19.9616 16.3333H8.03825C8.97159 18.7133 11.2816 20.4166 13.9999 20.4166ZM9.91659 12.8333C10.3807 12.8333 10.8258 12.6489 11.154 12.3207C11.4822 11.9925 11.6666 11.5474 11.6666 11.0833C11.6666 10.6191 11.4822 10.174 11.154 9.84582C10.8258 9.51763 10.3807 9.33325 9.91659 9.33325C9.45246 9.33325 9.00734 9.51763 8.67915 9.84582C8.35096 10.174 8.16659 10.6191 8.16659 11.0833C8.16659 11.5474 8.35096 11.9925 8.67915 12.3207C9.00734 12.6489 9.45246 12.8333 9.91659 12.8333ZM18.0833 12.8333C18.5474 12.8333 18.9925 12.6489 19.3207 12.3207C19.6489 11.9925 19.8333 11.5474 19.8333 11.0833C19.8333 10.6191 19.6489 10.174 19.3207 9.84582C18.9925 9.51763 18.5474 9.33325 18.0833 9.33325C17.6191 9.33325 17.174 9.51763 16.8458 9.84582C16.5176 10.174 16.3333 10.6191 16.3333 11.0833C16.3333 11.5474 16.5176 11.9925 16.8458 12.3207C17.174 12.6489 17.6191 12.8333 18.0833 12.8333ZM13.9999 23.3333C11.5246 23.3333 9.1506 22.3499 7.40026 20.5996C5.64992 18.8492 4.66659 16.4753 4.66659 13.9999C4.66659 11.5246 5.64992 9.1506 7.40026 7.40026C9.1506 5.64992 11.5246 4.66659 13.9999 4.66659C16.4753 4.66659 18.8492 5.64992 20.5996 7.40026C22.3499 9.1506 23.3333 11.5246 23.3333 13.9999C23.3333 16.4753 22.3499 18.8492 20.5996 20.5996C18.8492 22.3499 16.4753 23.3333 13.9999 23.3333ZM13.9999 2.33325C7.54825 2.33325 2.33325 7.58325 2.33325 13.9999C2.33325 17.0941 3.56242 20.0616 5.75034 22.2495C6.83369 23.3328 8.11981 24.1922 9.53528 24.7785C10.9507 25.3648 12.4678 25.6666 13.9999 25.6666C17.0941 25.6666 20.0616 24.4374 22.2495 22.2495C24.4374 20.0616 25.6666 17.0941 25.6666 13.9999C25.6666 12.4678 25.3648 10.9507 24.7785 9.53528C24.1922 8.11981 23.3328 6.83369 22.2495 5.75034C21.1661 4.66699 19.88 3.80763 18.4646 3.22132C17.0491 2.63502 15.532 2.33325 13.9999 2.33325Z" fill="#0D0D0E"/>
</svg>
