<svg width="28" height="28" viewBox="0 0 28 28" fill="none" xmlns="http://www.w3.org/2000/svg">
<path d="M8.4 14C11.1081 14 13.3 11.2602 13.3 7.875C13.3 4.48984 11.1081 1.75 8.4 1.75C5.69187 1.75 3.5 4.48984 3.5 7.875C3.5 11.2602 5.69187 14 8.4 14ZM11.76 15.75H11.3969C10.4869 16.2969 9.47625 16.625 8.4 16.625C7.32375 16.625 6.3175 16.2969 5.40312 15.75H5.04C2.2575 15.75 0 18.5719 0 22.05V23.625C0 25.0742 0.940625 26.25 2.1 26.25H14.7C15.8594 26.25 16.8 25.0742 16.8 23.625V22.05C16.8 18.5719 14.5425 15.75 11.76 15.75ZM21 14C23.3188 14 25.2 11.6484 25.2 8.75C25.2 5.85156 23.3188 3.5 21 3.5C18.6812 3.5 16.8 5.85156 16.8 8.75C16.8 11.6484 18.6812 14 21 14ZM23.1 15.75H22.9338C22.3256 16.0125 21.6825 16.1875 21 16.1875C20.3175 16.1875 19.6744 16.0125 19.0662 15.75H18.9C18.0075 15.75 17.185 16.0727 16.4631 16.5922C17.5306 18.0305 18.2 19.9391 18.2 22.05V24.15C18.2 24.2703 18.1781 24.3852 18.1737 24.5H25.9C27.0594 24.5 28 23.3242 28 21.875C28 18.4898 25.8081 15.75 23.1 15.75Z" fill="black"/>
</svg>
