<svg width="28" height="28" viewBox="0 0 28 28" fill="none" xmlns="http://www.w3.org/2000/svg">
<path d="M22.6619 5.34504C21.5264 4.19833 20.1755 3.28728 18.6869 2.66422C17.1983 2.04115 15.6012 1.71836 13.9874 1.71439C12.3737 1.71042 10.775 2.02534 9.28333 2.64107C7.79165 3.2568 6.43632 4.16119 5.29522 5.3023C4.15411 6.4434 3.24972 7.79873 2.63399 9.29041C2.01826 10.7821 1.70334 12.3807 1.70731 13.9945C1.71128 15.6083 2.03407 17.2053 2.65714 18.694C3.2802 20.1826 4.19125 21.5335 5.33796 22.6689C6.47344 23.8157 7.82429 24.7267 9.31293 25.3498C10.8016 25.9728 12.3986 26.2956 14.0124 26.2996C15.6262 26.3036 17.2248 25.9886 18.7165 25.3729C20.2082 24.7572 21.5635 23.8528 22.7046 22.7117C23.8457 21.5706 24.7501 20.2153 25.3658 18.7236C25.9816 17.2319 26.2965 15.6332 26.2925 14.0195C26.2885 12.4057 25.9658 10.8086 25.3427 9.32001C24.7196 7.83137 23.8086 6.48052 22.6619 5.34504ZM3.49991 14.007C3.4995 13.0777 3.62272 12.1525 3.86632 11.2557C4.26773 12.1197 4.8507 12.8662 5.24718 13.7527C5.7596 14.8924 7.13554 14.5763 7.74312 15.5749C8.28234 16.4614 7.70648 17.5825 8.11007 18.51C8.4032 19.1832 9.09445 19.3303 9.57132 19.8225C10.0586 20.319 10.0482 20.9993 10.1226 21.6468C10.2064 22.4076 10.3426 23.1617 10.53 23.9038C10.53 23.9093 10.53 23.9153 10.5344 23.9207C6.4421 22.4836 3.49991 18.5827 3.49991 14.007ZM13.9999 24.507C13.4135 24.5068 12.8282 24.4578 12.2499 24.3604C12.2559 24.2122 12.2587 24.0739 12.2734 23.9776C12.4063 23.1081 12.8416 22.2577 13.429 21.6069C14.0092 20.9649 14.8044 20.5307 15.2944 19.8022C15.7745 19.0913 15.9184 18.1343 15.7204 17.3036C15.4289 16.0764 13.7615 15.6668 12.8624 15.0012C12.3456 14.6184 11.8857 14.0267 11.207 13.9786C10.8942 13.9567 10.6323 14.0239 10.3222 13.9441C10.0378 13.8703 9.81468 13.7171 9.51171 13.7571C8.94569 13.8314 8.58859 14.4363 7.98046 14.3543C7.40351 14.2772 6.80905 13.6018 6.6778 13.0521C6.50937 12.3456 7.06827 12.1164 7.6671 12.0536C7.91702 12.0273 8.19757 11.9989 8.43765 12.0907C8.75374 12.2078 8.90304 12.5173 9.18687 12.6737C9.71898 12.9657 9.82671 12.4993 9.74523 12.0268C9.62327 11.3191 9.48109 11.0309 10.1122 10.5436C10.5497 10.2079 10.9237 9.96504 10.8537 9.36184C10.8122 9.00746 10.618 8.84723 10.7991 8.49449C10.9363 8.22598 11.3131 7.98371 11.5587 7.82348C12.1925 7.41004 14.2739 7.44067 13.4235 6.28348C13.1736 5.94387 12.7126 5.33684 12.2751 5.25371C11.7282 5.15035 11.4854 5.76067 11.1042 6.02973C10.7105 6.30809 9.94374 6.62418 9.54945 6.19379C9.01898 5.61465 9.90109 5.42488 10.0963 5.0202C10.1866 4.83153 10.0963 4.56957 9.94429 4.32293C10.1415 4.23981 10.342 4.1627 10.5459 4.0916C10.6736 4.18594 10.8251 4.24276 10.9834 4.25567C11.3492 4.27973 11.6943 4.08176 12.0137 4.33113C12.368 4.60457 12.6234 4.9502 13.0937 5.03551C13.5487 5.11809 14.0305 4.85285 14.1432 4.38692C14.2116 4.10363 14.1432 3.80449 14.0776 3.51192C16.1229 3.52368 18.1197 4.13622 19.8198 5.2734C19.7104 5.23184 19.5797 5.23676 19.4184 5.31168C19.0864 5.4659 18.6161 5.85856 18.5773 6.24793C18.533 6.68981 19.1848 6.75215 19.4944 6.75215C19.9592 6.75215 20.4301 6.54434 20.2802 6.00731C20.2151 5.77434 20.1266 5.53207 19.9838 5.38551C20.327 5.62357 20.6557 5.88178 20.9682 6.15879C20.9633 6.16371 20.9584 6.16809 20.9534 6.17356C20.6384 6.50168 20.2726 6.76145 20.0571 7.16067C19.9051 7.44176 19.7339 7.5752 19.426 7.64793C19.2565 7.68785 19.0629 7.70262 18.9207 7.81637C18.5248 8.12809 18.7501 8.87731 19.1252 9.10207C19.5994 9.3859 20.3027 9.25246 20.6603 8.84723C20.9398 8.53004 21.1044 7.97934 21.6069 7.97988C21.8282 7.97942 22.0408 8.06606 22.1987 8.22106C22.4065 8.43653 22.3655 8.63777 22.4098 8.90684C22.488 9.38481 22.9096 9.12559 23.1661 8.88442C23.3531 9.21714 23.5217 9.55981 23.6714 9.9109C23.3892 10.3172 23.165 10.7602 22.4863 10.2866C22.08 10.0028 21.8301 9.59098 21.3198 9.46301C20.8741 9.35363 20.4175 9.46738 19.9773 9.5434C19.4769 9.63035 18.8835 9.66863 18.504 10.0476C18.137 10.4129 17.9429 10.9018 17.5524 11.2688C16.7972 11.9797 16.4784 12.7557 16.9673 13.7609C17.4376 14.7272 18.4214 15.2517 19.4829 15.1828C20.5258 15.1133 21.6091 14.5085 21.5791 16.0239C21.5681 16.5604 21.6802 16.9317 21.8448 17.4299C21.9974 17.8893 21.987 18.3344 22.022 18.8086C22.0553 19.3638 22.1421 19.9145 22.2812 20.453C21.301 21.7151 20.0453 22.7364 18.6101 23.439C17.1748 24.1416 15.5979 24.5069 13.9999 24.507Z" fill="black"/>
</svg>
