<svg width="28" height="28" viewBox="0 0 28 28" fill="none" xmlns="http://www.w3.org/2000/svg">
<g clip-path="url(#clip0_87_22)">
<path d="M25.4548 0C26.8604 0 28 1.1396 28 2.5452V25.4548C28 25.789 27.9342 26.12 27.8063 26.4288C27.6783 26.7376 27.4909 27.0182 27.2545 27.2545C27.0182 27.4909 26.7376 27.6783 26.4288 27.8063C26.12 27.9342 25.789 28 25.4548 28H2.5452C2.21096 28 1.87999 27.9342 1.57119 27.8063C1.2624 27.6783 0.981816 27.4909 0.745472 27.2545C0.509128 27.0182 0.32165 26.7376 0.193742 26.4288C0.0658335 26.12 0 25.789 0 25.4548L0 2.5452C0 1.1396 1.1396 0 2.5452 0H25.4548ZM17.0898 9.5452L14.014 12.614L10.941 9.5452C10.7809 9.38505 10.5692 9.28699 10.3435 9.26852C10.1178 9.25006 9.89296 9.31239 9.709 9.4444L9.5914 9.5452C9.41255 9.72423 9.31209 9.96694 9.31209 10.22C9.31209 10.4731 9.41255 10.7158 9.5914 10.8948L12.6644 13.965L9.5914 17.0352C9.41225 17.2142 9.31153 17.457 9.31139 17.7102C9.31133 17.8356 9.33596 17.9598 9.38388 18.0756C9.43181 18.1915 9.50208 18.2968 9.5907 18.3855C9.67932 18.4742 9.78454 18.5446 9.90035 18.5926C10.0162 18.6407 10.1403 18.6654 10.2657 18.6655C10.5189 18.6656 10.7618 18.5652 10.941 18.3862L14.014 15.3132L17.0898 18.3862C17.4258 18.7222 17.948 18.7544 18.3218 18.4856L18.4394 18.3848C18.6182 18.2058 18.7187 17.9631 18.7187 17.71C18.7187 17.4569 18.6182 17.2142 18.4394 17.0352L15.365 13.965L18.438 10.8948C18.6038 10.7134 18.6933 10.4751 18.6878 10.2294C18.6824 9.98378 18.5824 9.74967 18.4087 9.57582C18.2351 9.40198 18.0011 9.30178 17.7554 9.29608C17.5098 9.29037 17.2713 9.3796 17.0898 9.5452Z" fill="black"/>
</g>
<defs>
<clipPath id="clip0_87_22">
<rect width="28" height="28" fill="white"/>
</clipPath>
</defs>
</svg>
