<svg width="35" height="10" viewBox="0 0 35 10" fill="none" xmlns="http://www.w3.org/2000/svg">
<path d="M0.188 9V0.0959995H1.04V9H0.188ZM3.00066 9V2.7H3.85266V9H3.00066ZM3.43266 1.308C3.25666 1.308 3.10866 1.248 2.98866 1.128C2.86866 1.008 2.80866 0.864 2.80866 0.696C2.80866 0.527999 2.86866 0.387999 2.98866 0.275999C3.10866 0.155999 3.25666 0.0959995 3.43266 0.0959995C3.60866 0.0959995 3.75666 0.151999 3.87666 0.263999C3.99666 0.375999 4.05666 0.516 4.05666 0.684C4.05666 0.86 3.99666 1.008 3.87666 1.128C3.76466 1.248 3.61666 1.308 3.43266 1.308ZM6.48531 7.368L6.50931 6.276L10.4333 2.7H11.4773L8.70531 5.352L8.22531 5.76L6.48531 7.368ZM5.81331 9V0.0959995H6.66531V9H5.81331ZM10.6973 9L8.06931 5.724L8.62131 5.064L11.7413 9H10.6973ZM15.0403 9.06C14.3843 9.06 13.8083 8.924 13.3123 8.652C12.8163 8.372 12.4283 7.992 12.1483 7.512C11.8683 7.024 11.7283 6.468 11.7283 5.844C11.7283 5.22 11.8603 4.668 12.1243 4.188C12.3963 3.708 12.7643 3.332 13.2283 3.06C13.7003 2.78 14.2283 2.64 14.8123 2.64C15.4043 2.64 15.9283 2.776 16.3843 3.048C16.8483 3.312 17.2123 3.688 17.4763 4.176C17.7403 4.656 17.8723 5.212 17.8723 5.844C17.8723 5.884 17.8683 5.928 17.8603 5.976C17.8603 6.016 17.8603 6.06 17.8603 6.108H12.3763V5.472H17.4043L17.0683 5.724C17.0683 5.268 16.9683 4.864 16.7683 4.512C16.5763 4.152 16.3123 3.872 15.9763 3.672C15.6403 3.472 15.2523 3.372 14.8123 3.372C14.3803 3.372 13.9923 3.472 13.6483 3.672C13.3043 3.872 13.0363 4.152 12.8443 4.512C12.6523 4.872 12.5563 5.284 12.5563 5.748V5.88C12.5563 6.36 12.6603 6.784 12.8683 7.152C13.0843 7.512 13.3803 7.796 13.7563 8.004C14.1403 8.204 14.5763 8.304 15.0643 8.304C15.4483 8.304 15.8043 8.236 16.1323 8.1C16.4683 7.964 16.7563 7.756 16.9963 7.476L17.4763 8.028C17.1963 8.364 16.8443 8.62 16.4203 8.796C16.0043 8.972 15.5443 9.06 15.0403 9.06ZM18.8456 6.12V5.376H21.9896V6.12H18.8456ZM23.7468 9V1.908C23.7468 1.348 23.9108 0.896 24.2388 0.551999C24.5668 0.207999 25.0388 0.0359995 25.6548 0.0359995C25.8948 0.0359995 26.1268 0.0679996 26.3508 0.132C26.5748 0.196 26.7628 0.296 26.9148 0.431999L26.6268 1.068C26.5068 0.964 26.3668 0.888 26.2068 0.84C26.0468 0.784 25.8748 0.756 25.6908 0.756C25.3308 0.756 25.0548 0.855999 24.8628 1.056C24.6708 1.256 24.5748 1.552 24.5748 1.944V2.904L24.5988 3.3V9H23.7468ZM22.6188 3.408V2.7H26.5188V3.408H22.6188ZM27.6708 9V2.7H28.5228V9H27.6708ZM28.1028 1.308C27.9268 1.308 27.7788 1.248 27.6588 1.128C27.5388 1.008 27.4788 0.864 27.4788 0.696C27.4788 0.527999 27.5388 0.387999 27.6588 0.275999C27.7788 0.155999 27.9268 0.0959995 28.1028 0.0959995C28.2788 0.0959995 28.4268 0.151999 28.5468 0.263999C28.6668 0.375999 28.7268 0.516 28.7268 0.684C28.7268 0.86 28.6668 1.008 28.5468 1.128C28.4348 1.248 28.2868 1.308 28.1028 1.308ZM30.5053 9V0.0959995H31.3573V9H30.5053ZM33.318 9V0.0959995H34.17V9H33.318Z" fill="black"/>
</svg>
