<svg width="28" height="28" viewBox="0 0 28 28" fill="none" xmlns="http://www.w3.org/2000/svg">
<path d="M19.2499 6.07017C19.2499 3.22117 17.9199 1.17017 15.7417 1.17017C14.5447 1.17017 14.134 1.8725 13.7047 3.5035C13.6172 3.84183 13.574 4.00517 13.5285 4.16733C13.4103 4.58656 13.2054 5.29822 12.9137 6.30233C12.9051 6.32892 12.8934 6.35438 12.8787 6.37817L9.53621 11.6118C8.74408 12.849 7.57691 13.8003 6.20538 14.3267L5.65355 14.5378C4.94893 14.8077 4.36198 15.3173 3.99584 15.977C3.6297 16.6368 3.50779 17.4045 3.65155 18.1452L4.12288 20.5788C4.26081 21.2902 4.59971 21.9472 5.09946 22.472C5.59921 22.9968 6.23888 23.3673 6.94271 23.5398L15.842 25.7215C17.2608 26.0691 18.7594 25.8424 20.012 25.0909C21.2645 24.3393 22.1696 23.1236 22.5305 21.7082L24.1814 15.2332C24.3241 14.6733 24.3371 14.0882 24.2191 13.5226C24.1012 12.957 23.8556 12.4258 23.5011 11.9695C23.1465 11.5133 22.6924 11.1442 22.1734 10.8903C21.6543 10.6364 21.0842 10.5045 20.5064 10.5047H18.3807C18.9594 8.5995 19.2499 7.13067 19.2499 6.07017ZM5.36655 17.8115C5.30134 17.4749 5.35682 17.1261 5.52324 16.8263C5.68965 16.5265 5.95637 16.295 6.27655 16.1723L6.82955 15.9612C8.5505 15.3009 10.0149 14.1071 11.0085 12.5545L14.3534 7.32083C14.4592 7.15594 14.5389 6.97939 14.5925 6.79117C14.8865 5.78161 15.0927 5.06489 15.2109 4.641C15.2755 4.41116 15.3374 4.18053 15.3964 3.94917C15.618 3.10683 15.7265 2.92133 15.7405 2.92133C16.7532 2.92133 17.4987 4.06933 17.4987 6.07017C17.4987 7.1015 17.1184 8.79433 16.3507 11.1043C16.3072 11.2357 16.2954 11.3756 16.3164 11.5124C16.3374 11.6493 16.3906 11.7792 16.4715 11.8914C16.5525 12.0037 16.659 12.0952 16.7822 12.1583C16.9054 12.2215 17.0418 12.2545 17.1802 12.2547H20.5052C20.6763 12.2547 20.8443 12.2761 21.0092 12.3188C21.2691 12.385 21.5133 12.5017 21.7281 12.6623C21.9428 12.8229 22.1238 13.0242 22.2608 13.2547C22.3977 13.4853 22.4879 13.7405 22.5262 14.0059C22.5645 14.2713 22.5501 14.5417 22.4839 14.8015L20.833 21.2753C20.5859 22.2437 19.9665 23.0754 19.1094 23.5895C18.2523 24.1036 17.2269 24.2585 16.2562 24.0205L7.35688 21.8388C6.97809 21.7459 6.63383 21.5464 6.36485 21.264C6.09586 20.9816 5.9134 20.628 5.83905 20.2452L5.36655 17.8115Z" fill="black"/>
</svg>
