<svg width="28" height="28" viewBox="0 0 28 28" fill="none" xmlns="http://www.w3.org/2000/svg">
<path d="M21 3.5H7C6.07174 3.5 5.1815 3.86875 4.52513 4.52513C3.86875 5.1815 3.5 6.07174 3.5 7V21C3.5 21.9283 3.86875 22.8185 4.52513 23.4749C5.1815 24.1313 6.07174 24.5 7 24.5H21C21.9283 24.5 22.8185 24.1313 23.4749 23.4749C24.1313 22.8185 24.5 21.9283 24.5 21V7C24.5 6.07174 24.1313 5.1815 23.4749 4.52513C22.8185 3.86875 21.9283 3.5 21 3.5ZM9.33333 8.16667C9.67945 8.16667 10.0178 8.2693 10.3056 8.46159C10.5934 8.65389 10.8177 8.9272 10.9501 9.24697C11.0826 9.56674 11.1172 9.91861 11.0497 10.2581C10.9822 10.5975 10.8155 10.9094 10.5708 11.1541C10.326 11.3988 10.0142 11.5655 9.67474 11.633C9.33527 11.7006 8.98341 11.6659 8.66364 11.5335C8.34387 11.401 8.07055 11.1767 7.87826 10.8889C7.68597 10.6011 7.58333 10.2628 7.58333 9.91667C7.58333 9.45254 7.76771 9.00742 8.0959 8.67923C8.42408 8.35104 8.8692 8.16667 9.33333 8.16667ZM22.1667 20.8017C22.1924 21.1373 22.0841 21.4694 21.8654 21.7253C21.6467 21.9811 21.3355 22.1399 21 22.1667H7L15.8317 14.21C15.98 14.0747 16.1734 13.9997 16.3742 13.9997C16.5749 13.9997 16.7684 14.0747 16.9167 14.21L22.1667 19.4367V20.8017Z" fill="black"/>
</svg>
