<svg width="26" height="26" viewBox="0 0 26 26" fill="none" xmlns="http://www.w3.org/2000/svg">
<path d="M24.2738 8.25315C23.6603 6.78897 22.7678 5.45813 21.6461 4.33479C20.5277 3.20951 19.1992 2.31485 17.7359 1.70159C16.237 1.0703 14.6265 0.746705 13 0.750025H12.9453C11.291 0.758228 9.6914 1.08635 8.18476 1.73167C6.7341 2.35122 5.41805 3.24747 4.31015 4.37034C3.19926 5.49114 2.31699 6.81733 1.7125 8.27503C1.08501 9.79086 0.767051 11.4169 0.777342 13.0574C0.785545 14.9551 1.23945 16.8391 2.08711 18.5235V22.6797C2.08711 23.3742 2.65039 23.9375 3.34219 23.9375H7.49297C9.18519 24.7914 11.0526 25.2407 12.948 25.25H13.0055C14.6406 25.25 16.2238 24.9328 17.7168 24.3121C19.1726 23.7062 20.4962 22.822 21.6133 21.709C22.7398 20.5907 23.6258 19.2836 24.2465 17.8262C24.8891 16.3168 25.2172 14.7117 25.2254 13.0547C25.2309 11.3895 24.9082 9.77346 24.2738 8.25315ZM7.54219 14.3125C6.82031 14.3125 6.23242 13.7246 6.23242 13C6.23242 12.2754 6.82031 11.6875 7.54219 11.6875C8.26406 11.6875 8.85195 12.2754 8.85195 13C8.85195 13.7246 8.26679 14.3125 7.54219 14.3125ZM13 14.3125C12.2781 14.3125 11.6902 13.7246 11.6902 13C11.6902 12.2754 12.2781 11.6875 13 11.6875C13.7219 11.6875 14.3098 12.2754 14.3098 13C14.3098 13.7246 13.7219 14.3125 13 14.3125ZM18.4578 14.3125C17.7359 14.3125 17.148 13.7246 17.148 13C17.148 12.2754 17.7359 11.6875 18.4578 11.6875C19.1797 11.6875 19.7676 12.2754 19.7676 13C19.7676 13.7246 19.1797 14.3125 18.4578 14.3125Z" fill="#0D0D0E"/>
</svg>
