<svg width="28" height="28" viewBox="0 0 28 28" fill="none" xmlns="http://www.w3.org/2000/svg">
<path d="M24.6879 19.432C24.6419 19.8896 24.477 20.3272 24.2095 20.7013C23.9661 21.062 23.6376 21.3571 23.253 21.5606C22.8684 21.764 22.4396 21.8696 22.0045 21.868H18.5745C18.5137 22.1821 18.4239 22.4898 18.3062 22.7873C18.0716 23.3581 17.7259 23.8767 17.2893 24.3129C16.8527 24.7491 16.3339 25.0942 15.7629 25.3283C15.1854 25.5617 14.5659 25.676 13.9429 25.6667H13.8495C13.2731 25.6624 12.7027 25.5476 12.1695 25.3283C11.5899 25.1032 11.0649 24.7572 10.6295 24.3133C10.1898 23.8799 9.84428 23.3604 9.61454 22.7873C9.49683 22.4895 9.407 22.1813 9.34621 21.8668H6.05621C5.62654 21.901 5.1951 21.8285 4.80023 21.6556C4.40537 21.4828 4.05932 21.2151 3.79288 20.8763C3.54124 20.4671 3.38352 20.0072 3.33106 19.5297C3.27861 19.0521 3.33274 18.5689 3.48954 18.1148C3.74351 17.4415 4.08897 16.8063 4.51621 16.2272C5.00749 15.6335 5.33703 14.923 5.47288 14.1645C5.47288 10.7975 5.47288 9.65533 7.31621 7.46433C7.9244 6.7388 8.68002 6.15101 9.53288 5.74L10.4429 5.29667C10.4873 5.26833 10.5267 5.23285 10.5595 5.19167C10.5944 5.14727 10.6184 5.09533 10.6295 5.04C10.7615 4.47086 11.0341 3.94391 11.4224 3.50734C11.8107 3.07077 12.3022 2.73853 12.852 2.541C13.4018 2.34284 13.9925 2.28536 14.5701 2.3738C15.1478 2.46224 15.6942 2.69377 16.1595 3.04733C16.798 3.55531 17.2159 4.28997 17.3262 5.09833V5.215C17.3601 5.26263 17.4039 5.30242 17.4545 5.33167L18.2945 5.74C19.1462 6.14834 19.9022 6.73167 20.5112 7.45267C22.3545 9.65533 22.3545 10.7975 22.3545 14.1645C22.5109 14.9695 22.8679 15.7232 23.3929 16.3555C23.8129 16.9167 24.1535 17.5327 24.4079 18.1848C24.5992 18.5722 24.696 18.9992 24.6879 19.432Z" fill="black"/>
</svg>
