<svg width="28" height="28" viewBox="0 0 28 28" fill="none" xmlns="http://www.w3.org/2000/svg">
<path d="M22 5.75V20.5C21.9998 20.6249 22.0463 20.7455 22.1305 20.8378C22.2147 20.9301 22.3304 20.9876 22.4548 20.9989C22.5793 21.0102 22.7034 20.9745 22.8028 20.8988C22.9023 20.8231 22.9697 20.7129 22.992 20.59L23 20.5V7H24.25C24.6892 7.00002 25.1123 7.16517 25.4354 7.46268C25.7585 7.76019 25.9579 8.1683 25.994 8.606L26 8.75V20.75C26.0001 21.5801 25.6824 22.3788 25.1123 22.9822C24.5422 23.5856 23.7628 23.948 22.934 23.995L22.75 24H5.25C4.41986 24.0001 3.62117 23.6824 3.01777 23.1123C2.41437 22.5422 2.052 21.7628 2.005 20.934L2 20.75V5.75C2.00002 5.31081 2.16517 4.88768 2.46268 4.56461C2.76019 4.24154 3.1683 4.04214 3.606 4.006L3.75 4H20.25C20.6892 4.00002 21.1123 4.16517 21.4354 4.46268C21.7585 4.76019 21.9579 5.1683 21.994 5.606L22 5.75ZM9.747 13.004H7.25C6.81081 13.004 6.38768 13.1692 6.06461 13.4667C5.74154 13.7642 5.54214 14.1723 5.506 14.61L5.5 14.754V17.25C5.50002 17.6892 5.66517 18.1123 5.96268 18.4354C6.26019 18.7585 6.6683 18.9579 7.106 18.994L7.25 19H9.747C10.1863 19 10.6096 18.8347 10.9327 18.537C11.2558 18.2392 11.4551 17.8309 11.491 17.393L11.496 17.25V14.754C11.4962 14.3146 11.3312 13.8913 11.0337 13.568C10.7361 13.2447 10.3279 13.0452 9.89 13.009L9.747 13.004ZM17.75 17.5H14.25L14.148 17.507C13.9685 17.5317 13.804 17.6206 13.6849 17.7571C13.5658 17.8937 13.5002 18.0688 13.5002 18.25C13.5002 18.4312 13.5658 18.6063 13.6849 18.7429C13.804 18.8794 13.9685 18.9683 14.148 18.993L14.25 19H17.75L17.852 18.993C18.0315 18.9683 18.196 18.8794 18.3151 18.7429C18.4342 18.6063 18.4998 18.4312 18.4998 18.25C18.4998 18.0688 18.4342 17.8937 18.3151 17.7571C18.196 17.6206 18.0315 17.5317 17.852 17.507L17.75 17.5ZM7.25 14.504H9.747C9.80319 14.504 9.85772 14.523 9.90181 14.5578C9.9459 14.5927 9.97696 14.6413 9.99 14.696L9.997 14.754V17.25C9.99691 17.3063 9.9778 17.361 9.94277 17.4051C9.90774 17.4492 9.85884 17.4802 9.804 17.493L9.747 17.5H7.25C7.19368 17.4999 7.13904 17.4808 7.09493 17.4458C7.05083 17.4107 7.01984 17.3618 7.007 17.307L7 17.25V14.754C6.99987 14.6975 7.01887 14.6426 7.05392 14.5983C7.08897 14.554 7.13799 14.5229 7.193 14.51L7.25 14.504ZM17.75 13.004H14.25L14.148 13.01C13.9677 13.0339 13.8023 13.1225 13.6824 13.2592C13.5626 13.396 13.4965 13.5717 13.4965 13.7535C13.4965 13.9353 13.5626 14.111 13.6824 14.2478C13.8023 14.3845 13.9677 14.4731 14.148 14.497L14.25 14.504H17.75L17.852 14.497C18.0323 14.4731 18.1977 14.3845 18.3176 14.2478C18.4374 14.111 18.5035 13.9353 18.5035 13.7535C18.5035 13.5717 18.4374 13.396 18.3176 13.2592C18.1977 13.1225 18.0323 13.0339 17.852 13.01L17.75 13.004ZM17.75 8.497H6.25L6.148 8.504C5.96849 8.5287 5.80399 8.61755 5.68491 8.75414C5.56583 8.89072 5.50023 9.0658 5.50023 9.247C5.50023 9.4282 5.56583 9.60328 5.68491 9.73986C5.80399 9.87645 5.96849 9.9653 6.148 9.99L6.25 9.997H17.75L17.852 9.99C18.0315 9.9653 18.196 9.87645 18.3151 9.73986C18.4342 9.60328 18.4998 9.4282 18.4998 9.247C18.4998 9.0658 18.4342 8.89072 18.3151 8.75414C18.196 8.61755 18.0315 8.5287 17.852 8.504L17.75 8.497Z" fill="#0D0D0E"/>
</svg>
