<svg width="28" height="28" viewBox="0 0 28 28" fill="none" xmlns="http://www.w3.org/2000/svg">
<path d="M20.9999 3.5C22.2376 3.5 23.4246 3.99167 24.2998 4.86683C25.1749 5.742 25.6666 6.92899 25.6666 8.16667V17.5C25.6666 18.7377 25.1749 19.9247 24.2998 20.7998C23.4246 21.675 22.2376 22.1667 20.9999 22.1667H15.4886L9.93292 25.4998C9.76561 25.6002 9.57578 25.6571 9.38082 25.6651C9.18586 25.6732 8.99199 25.6323 8.81695 25.546C8.64192 25.4598 8.49131 25.331 8.37891 25.1715C8.26651 25.012 8.19592 24.8268 8.17359 24.633L8.16659 24.5V22.1667H6.99992C5.80264 22.1667 4.65115 21.7065 3.78364 20.8813C2.91612 20.0562 2.39895 18.9291 2.33909 17.7333L2.33325 17.5V8.16667C2.33325 6.92899 2.82492 5.742 3.70009 4.86683C4.57526 3.99167 5.76224 3.5 6.99992 3.5H20.9999ZM13.9999 15.1667C13.6905 15.1667 13.3938 15.2896 13.175 15.5084C12.9562 15.7272 12.8333 16.0239 12.8333 16.3333V16.345C12.8333 16.6544 12.9562 16.9512 13.175 17.17C13.3938 17.3888 13.6905 17.5117 13.9999 17.5117C14.3093 17.5117 14.6061 17.3888 14.8249 17.17C15.0437 16.9512 15.1666 16.6544 15.1666 16.345V16.3333C15.1666 16.0239 15.0437 15.7272 14.8249 15.5084C14.6061 15.2896 14.3093 15.1667 13.9999 15.1667ZM13.9999 8.16667C13.6905 8.16667 13.3938 8.28958 13.175 8.50838C12.9562 8.72717 12.8333 9.02391 12.8333 9.33333V12.8333C12.8333 13.1428 12.9562 13.4395 13.175 13.6583C13.3938 13.8771 13.6905 14 13.9999 14C14.3093 14 14.6061 13.8771 14.8249 13.6583C15.0437 13.4395 15.1666 13.1428 15.1666 12.8333V9.33333C15.1666 9.02391 15.0437 8.72717 14.8249 8.50838C14.6061 8.28958 14.3093 8.16667 13.9999 8.16667Z" fill="black"/>
</svg>
