<svg width="7" height="28" viewBox="0 0 7 28" fill="none" xmlns="http://www.w3.org/2000/svg">
<g clip-path="url(#clip0_32_12)">
<path d="M3.33341 19.6875C2.55987 19.6875 1.818 20.0102 1.27102 20.5845C0.724039 21.1588 0.416748 21.9378 0.416748 22.75C0.416748 23.5622 0.724039 24.3412 1.27102 24.9155C1.818 25.4898 2.55987 25.8125 3.33341 25.8125C4.10696 25.8125 4.84883 25.4898 5.39581 24.9155C5.94279 24.3412 6.25008 23.5622 6.25008 22.75C6.25008 21.9378 5.94279 21.1588 5.39581 20.5845C4.84883 20.0102 4.10696 19.6875 3.33341 19.6875ZM3.33341 10.9375C2.55987 10.9375 1.818 11.2602 1.27102 11.8345C0.724039 12.4088 0.416748 13.1878 0.416748 14C0.416748 14.8122 0.724039 15.5912 1.27102 16.1655C1.818 16.7398 2.55987 17.0625 3.33341 17.0625C4.10696 17.0625 4.84883 16.7398 5.39581 16.1655C5.94279 15.5912 6.25008 14.8122 6.25008 14C6.25008 13.1878 5.94279 12.4088 5.39581 11.8345C4.84883 11.2602 4.10696 10.9375 3.33341 10.9375ZM6.25008 5.25C6.25008 4.43777 5.94279 3.65882 5.39581 3.08449C4.84883 2.51016 4.10696 2.1875 3.33341 2.1875C2.55987 2.1875 1.818 2.51016 1.27102 3.08449C0.724039 3.65882 0.416748 4.43777 0.416748 5.25C0.416748 6.06223 0.724039 6.84118 1.27102 7.41551C1.818 7.98984 2.55987 8.3125 3.33341 8.3125C4.10696 8.3125 4.84883 7.98984 5.39581 7.41551C5.94279 6.84118 6.25008 6.06223 6.25008 5.25Z" fill="#0D0D0E"/>
</g>
<defs>
<clipPath id="clip0_32_12">
<rect width="6.66667" height="28" fill="white"/>
</clipPath>
</defs>
</svg>
